<svg width="100" height="100" viewBox="0 0 100 100" fill="none" xmlns="http://www.w3.org/2000/svg">
<g clip-path="url(#clip0_3_73)">
<path d="M99.8711 49.8584C99.8711 22.3158 77.521 0 49.9354 0C22.3502 0 0 22.3158 0 49.8584C0 74.7437 18.2607 95.3707 42.133 99.114V64.2712H29.4479V49.8584H42.133V38.8737C42.133 26.3788 49.5832 19.477 60.9938 19.477C66.4588 19.477 72.1729 20.4501 72.1729 20.4501V32.7137H65.8746C59.6729 32.7137 57.7381 36.5577 57.7381 40.5V49.8584H71.5869L69.3722 64.2712H57.7381V99.114C81.6103 95.3707 99.8711 74.7437 99.8711 49.8584Z" fill="#0087E9"/>
</g>
<defs>
<clipPath id="clip0_3_73">
<rect width="100" height="99.1597" fill="white"/>
</clipPath>
</defs>
</svg>
