<svg width="100" height="68" viewBox="0 0 100 68" fill="none" xmlns="http://www.w3.org/2000/svg">
<g clip-path="url(#clip0_3_78)">
<path d="M97.9103 10.5692C96.7603 6.40895 93.3717 3.13244 89.0693 2.02051C81.2709 0 50 0 50 0C50 0 18.7293 0 10.9307 2.02051C6.62823 3.13263 3.23967 6.40895 2.0896 10.5692C0 18.11 0 33.8432 0 33.8432C0 33.8432 0 49.5761 2.0896 57.117C3.23967 61.2773 6.62823 64.4173 10.9307 65.5291C18.7293 67.5497 50 67.5497 50 67.5497C50 67.5497 81.2707 67.5497 89.0693 65.5291C93.3717 64.4173 96.7603 61.2773 97.9103 57.117C100 49.5761 100 33.8432 100 33.8432C100 33.8432 100 18.11 97.9103 10.5692ZM39.7726 48.1275V19.5586L65.909 33.8435L39.7726 48.1275Z" fill="#FA1C1C"/>
</g>
<defs>
<clipPath id="clip0_3_78">
<rect width="100" height="67.5497" fill="white"/>
</clipPath>
</defs>
</svg>
